# xmcd CD database file
#
# Track frame offsets:
#	150
#	25395
#	45270
#	66970
#	87720
#	110935
#	129312
#	146325
#	166725
#	184340
#	207665
#	235110
#
# Disc length: 3348 seconds
#
# Revision: 2
# Processed by: cddbd v1.5.1PL0 Copyright (c) Steve Scherf et al.
# Submitted via: CDex 1.51
#
DISCID=ad0d120c
DTITLE=Sara Evans - Born To Fly
DYEAR=2000
DGENRE=Country
TTITLE0=Born To Fly
TTITLE1=Saints and Angels
TTITLE2=I Could Not Ask For More
TTITLE3=I Keep Looking
TTITLE4=I Learned That From You
TTITLE5=Let's Dance
TTITLE6=Why Should I Care
TTITLE7=Four-Thirty
TTITLE8=Show Me The Way To Your Heart
TTITLE9=You Don't
TTITLE10=Every Little Kiss
TTITLE11=You
EXTD=YEAR: 2000
EXTT0=
EXTT1=
EXTT2=
EXTT3=
EXTT4=
EXTT5=
EXTT6=
EXTT7=
EXTT8=
EXTT9=
EXTT10=
EXTT11=
PLAYORDER=
